<?xml version="1.0" encoding="UTF-8" standalone="no"?>
<svg width="497px" height="103px" viewBox="0 0 497 103" version="1.1" xmlns="http://www.w3.org/2000/svg" xmlns:xlink="http://www.w3.org/1999/xlink">
    <!-- Generator: Sketch 3.8.3 (29802) - http://www.bohemiancoding.com/sketch -->
    <title>logo_conda_RGB_inkscape</title>
    <desc>Created with Sketch.</desc>
    <defs>
        <path d="M12.1252663,1.96313835 C15.8205856,11.7788301 28.7542029,24.8279262 44.6902672,24.8279262 C53.4666504,24.8279262 61.4346826,21.7100006 67.6705338,16.3979792 C68.1324487,16.1670217 72.4051616,21.0171283 74.1373425,22.8647879 C74.4837787,23.3267028 74.4837787,23.4421815 74.4837787,23.4421815 C53.4666504,41.803299 17.7837239,39.1472883 0.923829813,7.39063851 C2.30957453,2.77148944 4.27271289,-3.28195259e-14 4.27271289,-3.28195259e-14 C8.77638323,1.84765963 12.1252663,1.96313835 12.1252663,1.96313835 L12.1252663,1.96313835 Z" id="path-1"></path>
        <rect id="path-3" x="0.461917216" y="0.577393633" width="90.535324" height="103.930854"></rect>
    </defs>
    <g id="Page-1" stroke="none" stroke-width="1" fill="none" fill-rule="evenodd">
        <g id="logo_conda_RGB_inkscape" transform="translate(-2.000000, -3.000000)">
            <g id="g3588">
                <g id="g19-Clipped">
                    <g id="g19" transform="translate(2.309575, 2.309575)">
                        <path d="M24.3660113,55.4297888 C22.402873,54.9678739 18.3611175,53.6976079 14.0884047,51.0415972 C18.7075537,48.3855865 22.8647879,47.9236716 24.3660113,47.8081928 C24.5969688,46.0760119 24.943405,44.4593098 25.4053199,42.8426076 C23.9040964,41.6878203 21.0171283,39.3782458 18.3611175,35.913884 C22.6338304,35.5674478 26.3291497,36.1448414 28.1768093,36.4912776 C29.1006391,34.8745754 30.2554264,33.373352 31.6411711,31.8721286 C30.83282,30.4863838 29.3315966,27.7148944 28.4077668,23.9040964 C31.8721286,25.4053199 34.4126605,27.2529795 35.6829265,28.292288 C37.4151074,27.022022 39.2627671,25.9827135 41.1104267,25.0588837 C41.1104267,23.4421815 41.1104267,20.5552133 41.803299,17.0908515 C44.2283523,19.6313835 45.7295758,22.0564368 46.3069694,23.3267028 C48.6165439,22.8647879 51.0415972,22.6338304 53.5821292,22.7493092 C54.0440441,21.4790432 54.9678739,19.2849474 56.5845761,16.6289366 C57.7393633,19.6313835 58.2012782,22.0564368 58.4322357,23.3267028 C60.9727677,23.9040964 63.3978209,24.7124475 65.7073955,25.8672348 C69.4027147,22.7493092 72.8670765,21.3635644 76.9088319,20.3242559 C76.9088319,15.2431919 76.2159596,10.2776067 73.5599489,5.31202143 C70.9039382,4.04175543 68.01697,3.11792562 65.1300018,2.42505326 C62.1275549,4.04175543 59.7025017,5.88941506 57.6238846,7.85255341 C56.1226612,5.54297888 54.1595228,3.11792562 51.7344695,0.923829813 C50.5796823,0.923829813 48.3855865,0.808351087 44.1128736,1.50122345 C42.0342565,4.15723416 40.5330331,6.81324487 39.3782458,9.46925559 C36.8377138,7.85255341 33.7197882,6.46680869 30.1399477,5.54297888 C28.0613306,6.46680869 26.0981922,7.50611723 24.1350539,8.6609045 C23.4421815,12.0097876 23.2112241,15.1277132 23.3267028,18.0146814 C20.3242559,17.4372877 16.8598941,17.2063303 13.1645748,17.6682452 C11.8943088,19.0539899 10.6240429,20.5552133 9.46925559,22.1719155 C9.70021304,26.3291497 10.7395216,29.9089902 12.240745,33.0269158 C8.77638323,33.8352669 5.1965427,35.3364904 1.84765963,37.6460649 C1.38574472,39.1472883 1.03930854,40.7639905 0.69287236,42.265214 C2.77148944,45.8450545 5.42750015,48.7320226 8.08351087,50.9261185 C5.42750015,53.1202143 2.77148944,56.1226612 0.34643618,60.1644166 C0.577393633,61.8965975 0.923829813,63.5132997 1.38574472,65.1300018 L1.50122345,65.1300018 C4.27271289,59.3560655 7.62159596,55.5452675 10.8550003,53.0047355 C17.4372877,57.5084059 23.9040964,58.7786719 24.8279262,58.8941506 C24.7124475,57.8548421 24.48149,56.8155335 24.3660113,55.4297888 L24.3660113,55.4297888 Z M68.2479275,6.35132997 C70.557502,9.81569177 71.3658531,14.0884047 71.5968105,16.5134579 C69.5181934,17.321809 66.2847891,18.8230324 63.1668635,21.3635644 C62.7049486,19.1694686 61.8965975,15.9360643 60.1644166,12.240745 C62.2430337,10.1621279 64.8990444,8.08351087 68.2479275,6.35132997 L68.2479275,6.35132997 Z M48.0391503,4.04175543 C50.8106397,6.35132997 52.8892568,9.12281941 54.3904803,11.6633514 C51.965427,14.781277 50.4642035,17.7837239 49.6558525,19.862341 C48.5010652,17.7837239 46.4224481,15.0122345 43.3045225,12.240745 C44.343831,9.58473431 45.8450545,6.69776615 48.0391503,4.04175543 L48.0391503,4.04175543 Z M28.292288,9.70021304 C32.3340435,10.5085641 35.4519691,12.0097876 38.1079798,13.8574472 C36.9531925,17.8992026 36.7222351,21.4790432 36.7222351,23.7886177 C34.643618,22.2873942 31.6411711,20.4397346 27.7148944,19.1694686 C27.3684582,16.3979792 27.4839369,13.1645748 28.292288,9.70021304 L28.292288,9.70021304 Z M24.0195751,22.402873 C24.8279262,26.9065433 26.3291497,30.3709051 27.4839369,32.5650009 C24.8279262,32.103086 20.7861708,31.7566498 16.2825005,32.3340435 C14.781277,29.4470753 13.6264897,25.8672348 13.3955323,21.8254793 C17.321809,21.3635644 20.9016495,21.7100006 24.0195751,22.402873 L24.0195751,22.402873 Z M3.81079798,40.8794692 C7.15968105,38.454416 10.8550003,37.18415 14.2038834,36.4912776 C16.6289366,40.3020756 19.6313835,43.073565 21.7100006,44.8057459 C19.0539899,45.2676608 15.1277132,46.3069694 10.970479,48.9629801 C8.42994705,46.9998417 5.88941506,44.343831 3.81079798,40.8794692 L3.81079798,40.8794692 Z" id="path21" stroke="#2DB24A" stroke-width="0.25" fill="#FFFFFF"></path>
                        <g id="g23" stroke="#43B02A" stroke-width="0.25" fill="#43B02A">
                            <path d="M46.4224481,23.3267028 C45.7295758,22.0564368 44.343831,19.5159048 41.9187778,17.0908515 C41.1104267,20.5552133 41.1104267,23.5576602 41.2259054,25.0588837 C41.1104267,25.0588837 43.4200012,23.9040964 46.4224481,23.3267028 L46.4224481,23.3267028 Z" id="path25"></path>
                            <path id="path27"></path>
                            <path id="path29"></path>
                            <path id="path31"></path>
                            <path d="M35.6829265,28.1768093 C34.4126605,27.1375008 31.9876073,25.2898411 28.4077668,23.7886177 C29.3315966,27.5994157 30.83282,30.3709051 31.6411711,31.7566498 C31.6411711,31.9876073 33.2578733,30.0244689 35.6829265,28.1768093 L35.6829265,28.1768093 Z" id="path35"></path>
                            <path d="M49.6558525,19.862341 C50.4642035,17.7837239 51.965427,14.781277 54.3904803,11.6633514 C52.8892568,9.00734068 50.8106397,6.35132997 48.0391503,4.04175543 C45.8450545,6.81324487 44.343831,9.58473431 43.3045225,12.3562238 C46.4224481,15.0122345 48.3855865,17.7837239 49.6558525,19.862341 L49.6558525,19.862341 Z" id="path37"></path>
                            <path d="M28.292288,36.4912776 L28.292288,36.4912776 C26.4446284,36.1448414 22.7493092,35.5674478 18.4765963,35.913884 C21.0171283,39.4937245 23.9040964,41.803299 25.5207986,42.8426076 C25.4053199,42.9580863 26.3291497,39.8401607 28.292288,36.4912776 L28.292288,36.4912776 Z" id="path39"></path>
                            <path d="M11.0859578,48.9629801 C15.2431919,46.3069694 19.1694686,45.1521821 21.8254793,44.8057459 C19.7468623,43.073565 16.7444154,40.3020756 14.3193621,36.4912776 C10.8550003,37.18415 7.27515978,38.5698947 3.92627671,40.8794692 C5.88941506,44.343831 8.42994705,46.9998417 11.0859578,48.9629801 L11.0859578,48.9629801 Z" id="path43"></path>
                            <path d="M24.3660113,47.9236716 C22.7493092,48.0391503 18.7075537,48.3855865 14.0884047,51.1570759 C18.3611175,53.8130866 22.402873,55.0833526 24.3660113,55.5452675 L24.3660113,55.5452675 C24.0195751,53.0047355 24.0195751,50.3487248 24.3660113,47.9236716 L24.3660113,47.9236716 L24.3660113,47.9236716 Z" id="path45"></path>
                            <path d="M38.1079798,13.8574472 C35.5674478,12.1252663 32.3340435,10.6240429 28.292288,9.70021304 C27.4839369,13.1645748 27.3684582,16.3979792 27.5994157,19.1694686 C31.5256924,20.4397346 34.5281393,22.2873942 36.6067563,23.7886177 C36.6067563,21.4790432 36.9531925,17.8992026 38.1079798,13.8574472 L38.1079798,13.8574472 Z" id="path47"></path>
                            <path d="M73.6754276,5.42750015 C73.6754276,5.42750015 76.9088319,15.3586706 77.0243107,20.4397346 C73.098034,21.3635644 69.6336722,22.7493092 65.8228742,25.9827135 C67.9014913,27.022022 69.7491509,28.292288 71.4813318,29.7935115 C73.3289914,31.4102136 75.0611723,32.103086 77.4862256,30.9482987 C78.8719703,30.0244689 86.609045,22.0564368 87.4173961,21.0171283 C89.2650557,19.0539899 88.8031408,15.8205856 86.8400024,14.3193621 C81.9898959,9.81569177 73.6754276,5.42750015 73.6754276,5.42750015 L73.6754276,5.42750015 Z" id="path49"></path>
                            <path d="M1.96313835,37.6460649 C5.42750015,35.3364904 8.89186195,33.8352669 12.3562238,33.0269158 C10.8550003,29.9089902 9.81569177,26.3291497 9.58473431,22.1719155 C6.23585124,26.9065433 3.57984053,32.2185647 1.96313835,37.6460649 L1.96313835,37.6460649 Z" id="path51"></path>
                            <path d="M27.3684582,32.5650009 C26.2136709,30.3709051 24.7124475,26.7910646 23.9040964,22.402873 C20.7861708,21.7100006 17.321809,21.3635644 13.2800536,21.9409581 C13.511011,25.9827135 14.6657983,29.4470753 16.1670217,32.4495222 C20.7861708,31.7566498 24.7124475,32.103086 27.3684582,32.5650009 L27.3684582,32.5650009 Z" id="path55"></path>
                            <path id="path57"></path>
                            <path d="M13.2800536,17.7837239 C16.9753728,17.321809 20.4397346,17.5527665 23.4421815,18.1301601 C23.3267028,15.2431919 23.5576602,12.1252663 24.2505326,8.77638323 C26.2136709,7.62159596 28.1768093,6.58228742 30.2554264,5.65845761 C33.9507456,6.58228742 36.9531925,7.96803214 39.4937245,9.58473431 C40.6485118,6.9287236 42.1497352,4.27271289 44.2283523,1.61670217 C33.7197882,3.23340435 23.7886177,7.85255341 16.1670217,15.0122345 C13.7419685,17.2063303 11.5478727,19.7468623 9.58473431,22.402873 C10.7395216,20.6706921 12.0097876,19.1694686 13.2800536,17.7837239 L13.2800536,17.7837239 Z" id="path59"></path>
                            <path id="path61"></path>
                            <path id="path63"></path>
                            <path id="path65"></path>
                            <path d="M1.38574472,39.9556394 C1.61670217,39.1472883 1.7321809,38.454416 1.96313835,37.6460649 C1.7321809,38.454416 1.50122345,39.2627671 1.38574472,39.9556394 L1.38574472,39.9556394 Z" id="path67"></path>
                            <path id="path69"></path>
                            <path d="M8.31446832,51.0415972 C5.65845761,48.8475014 3.00244689,45.9605332 0.923829813,42.3806927 C-0.230957453,48.2701077 -0.230957453,54.505959 0.69287236,60.2798953 C2.88696817,56.2381399 5.54297888,53.3511717 8.31446832,51.0415972 L8.31446832,51.0415972 Z" id="path71"></path>
                            <path id="path73"></path>
                            <path d="M85.9161726,80.8351087 C78.6410128,73.9063851 77.1397894,69.4027147 71.0194169,74.1373425 C54.2750015,87.3019173 30.1399477,79.4493639 25.0588837,59.0096293 C24.1350539,58.8941506 17.6682452,57.6238846 11.0859578,53.1202143 C7.85255341,55.6607462 4.50367034,59.587023 1.7321809,65.2454806 L1.61670217,65.2454806 C12.1252663,104.970163 63.2823422,114.208461 86.9554812,89.3805344 C90.8817579,85.2233003 87.3019173,82.3363321 85.9161726,80.8351087 L85.9161726,80.8351087 Z" id="path75"></path>
                            <path id="path77"></path>
                            <path d="M68.2479275,6.35132997 C64.8990444,7.96803214 62.2430337,10.0466492 60.1644166,12.240745 C61.8965975,15.9360643 62.7049486,19.2849474 63.1668635,21.3635644 C66.4002678,18.8230324 69.6336722,17.321809 71.5968105,16.5134579 C71.3658531,14.2038834 70.557502,9.93117049 68.2479275,6.35132997 L68.2479275,6.35132997 Z" id="path79"></path>
                            <path id="path81"></path>
                            <path d="M56.7000548,16.6289366 C55.0833526,19.1694686 54.1595228,21.4790432 53.6976079,22.7493092 L53.6976079,22.7493092 C55.3143101,22.8647879 56.9310122,23.0957453 58.5477144,23.4421815 C58.4322357,22.0564368 57.8548421,19.6313835 56.7000548,16.6289366 L56.7000548,16.6289366 Z" id="path83"></path>
                            <path d="M69.5181934,3.81079798 C68.9407998,3.57984053 68.2479275,3.34888307 67.6705338,3.23340435 C68.3634062,3.34888307 68.9407998,3.57984053 69.5181934,3.81079798 L69.5181934,3.81079798 Z" id="path85"></path>
                            <path d="M57.7393633,7.85255341 C59.8179804,5.88941506 62.2430337,4.04175543 65.2454806,2.42505326 C60.9727677,1.38574472 56.5845761,0.923829813 51.8499483,0.923829813 C54.2750015,3.11792562 56.2381399,5.54297888 57.7393633,7.85255341 L57.7393633,7.85255341 Z" id="path87"></path>
                            <path id="path89"></path>
                        </g>
                        <g id="g91" transform="translate(8.083511, 62.358512)">
                            <g id="g99-Clipped">
                                <mask id="mask-2" fill="white">
                                    <use xlink:href="#path-1"></use>
                                </mask>
                                <g id="SVGID_2_"></g>
                                <g id="g99" mask="url(#mask-2)">
                                    <g transform="translate(-9.238298, -63.513300)">
                                        <g id="rect107-Clipped">
                                            <mask id="mask-4" fill="white">
                                                <use xlink:href="#path-3"></use>
                                            </mask>
                                            <g id="SVGID_4_"></g>
                                            <rect id="rect107" stroke="#2DB24A" stroke-width="0.25" fill="#FFFFFF" mask="url(#mask-4)" x="2.65600956" y="56.1226612" width="88.3412259" height="49.6558525"></rect>
                                        </g>
                                        <g id="use109">
                                            <rect id="SVGID_4_" stroke="#2DB24A" stroke-width="0.25" x="0.461917216" y="0.577393633" width="90.535324" height="103.930854"></rect>
                                        </g>
                                    </g>
                                </g>
                            </g>
                            <g id="use111" stroke="#2DB24A" stroke-width="0.25">
                                <path d="M12.1252663,1.96313835 C15.8205856,11.7788301 28.7542029,24.8279262 44.6902672,24.8279262 C53.4666504,24.8279262 61.4346826,21.7100006 67.6705338,16.3979792 C68.1324487,16.1670217 72.4051616,21.0171283 74.1373425,22.8647879 C74.4837787,23.3267028 74.4837787,23.4421815 74.4837787,23.4421815 C53.4666504,41.803299 17.7837239,39.1472883 0.923829813,7.39063851 C2.30957453,2.77148944 4.27271289,-3.28195259e-14 4.27271289,-3.28195259e-14 C8.77638323,1.84765963 12.1252663,1.96313835 12.1252663,1.96313835 L12.1252663,1.96313835 Z" id="SVGID_2_"></path>
                            </g>
                        </g>
                    </g>
                </g>
                <g id="g119" transform="translate(97.002130, 2.309575)" fill="#43B02A">
                    <path d="M51.2725546,0.808351087 C79.6803214,0.808351087 102.314152,23.673139 102.314152,51.965427 C102.314152,80.257715 79.5648427,102.891545 51.2725546,102.891545 C22.9802666,102.891545 0.34643618,80.3731937 0.34643618,51.965427 C0.34643618,23.5576602 22.8647879,0.808351087 51.2725546,0.808351087 L51.2725546,0.808351087 Z M51.2725546,84.5304279 C69.1717573,84.5304279 83.9530343,69.8646296 83.9530343,52.0809057 C83.9530343,34.2971818 69.1717573,19.2849474 51.2725546,19.2849474 C33.373352,19.2849474 18.8230324,34.1817031 18.8230324,52.0809057 C18.8230324,69.9801084 33.373352,84.5304279 51.2725546,84.5304279 L51.2725546,84.5304279 Z" id="path121"></path>
                    <path d="M117.672822,3.34888307 C117.672822,1.96313835 118.943088,0.808351087 120.328833,0.808351087 L123.908674,0.808351087 L182.918303,63.5132997 L183.033782,63.5132997 L183.033782,4.96558525 C183.033782,3.57984053 184.188569,2.30957453 185.689792,2.30957453 L198.738889,2.30957453 C200.124633,2.30957453 201.394899,3.57984053 201.394899,4.96558525 L201.394899,100.466492 C201.394899,101.852237 200.124633,103.007024 198.738889,103.007024 L195.390005,103.007024 L136.03394,37.8770223 L135.918461,37.8770223 L135.918461,98.84979 C135.918461,100.235535 134.763674,101.505801 133.262451,101.505801 L120.328833,101.505801 C118.943088,101.505801 117.672822,100.235535 117.672822,98.84979 L117.672822,3.34888307 L117.672822,3.34888307 Z" id="path123"></path>
                    <path d="M223.451336,4.96558525 C223.451336,3.57984053 224.606123,2.30957453 225.991868,2.30957453 L259.596178,2.30957453 C286.964636,2.30957453 309.367509,24.5969688 309.367509,51.8499483 C309.367509,79.3338852 286.964636,101.621279 259.596178,101.621279 L225.991868,101.621279 C224.606123,101.621279 223.451336,100.351013 223.451336,98.9652687 L223.451336,4.96558525 L223.451336,4.96558525 Z M257.979475,84.1839917 C276.456072,84.1839917 289.851604,70.3265445 289.851604,51.7344695 C289.851604,33.2578733 276.340593,19.4004261 257.979475,19.4004261 L241.812454,19.4004261 L241.812454,84.1839917 L257.979475,84.1839917 L257.979475,84.1839917 Z" id="path125"></path>
                    <path d="M307.635328,97.8104815 L351.748201,2.30957453 C352.210116,1.50122345 352.902989,0.69287236 354.173255,0.69287236 L355.558999,0.69287236 C356.944744,0.69287236 357.522138,1.38574472 357.984053,2.30957453 L401.635011,97.8104815 C402.443362,99.6581411 401.404054,101.505801 399.209958,101.505801 L386.853734,101.505801 C384.775117,101.505801 383.735809,100.69745 382.6965,98.6188326 L375.767777,83.2601619 L333.387084,83.2601619 L326.45836,98.6188326 C325.880967,100.004577 324.610701,101.505801 322.301126,101.505801 L309.944902,101.505801 C307.981764,101.505801 306.826977,99.6581411 307.635328,97.8104815 L307.635328,97.8104815 Z M368.954532,67.6705338 L354.750648,36.4912776 L354.288733,36.4912776 L340.431286,67.6705338 L368.954532,67.6705338 L368.954532,67.6705338 Z" id="path127"></path>
                </g>
            </g>
        </g>
    </g>
</svg>
