<svg viewBox="0 0 23.565 27.149" xmlns="http://www.w3.org/2000/svg" width="100%"><title>Conda Logo</title><defs><mask id="a" x="9.83" y="63.06" width="73.56" height="34.87" maskUnits="userSpaceOnUse"></mask><mask id="b" x="0.13" y="0.13" width="90.54" height="103.93" maskUnits="userSpaceOnUse"></mask></defs><path class="cls-2" d="M25.16 55.61c-1.96-.47-5.91-1.69-10.17-4.38 4.63-2.64 8.73-3.09 10.23-3.2.24-1.74.65-3.35 1.11-4.97-1.49-1.17-4.37-3.5-7-6.99 4.27-.33 7.95.27 9.79.63.93-1.62 2-3.26 3.39-4.76-.8-1.39-2.19-4.05-3.09-7.88 3.45 1.52 5.87 3.21 7.13 4.25 1.74-1.27 3.65-2.19 5.5-3.11 0-1.62.07-4.45.78-7.92 2.41 2.56 3.89 4.9 4.46 6.18 2.31-.45 4.74-.57 7.28-.44.47-1.27 1.4-3.47 3.03-6.13a35.79 35.79 0 0 1 1.81 6.73c2.53.59 5.03 1.37 7.33 2.54 3.71-3.11 7.1-4.44 11.14-5.47.02-5.1-.88-10.26-3.51-15.26-2.65-1.29-5.28-2.06-8.16-2.77a34.668 34.668 0 0 0-7.52 5.41 35.434 35.434 0 0 0-5.85-6.98c-1.15 0-3.34-.13-7.61.54a36.58 36.58 0 0 0-4.77 7.98c-2.53-1.64-5.64-3.04-9.21-3.99-2.08.92-4.05 1.95-6.01 3.1-.71 3.36-.95 6.49-.85 9.39-3-.59-6.45-.84-10.15-.4-1.28 1.38-2.56 2.83-3.73 4.45.21 4.17 1.24 7.83 2.73 10.96-3.46.79-7.05 2.28-10.4 4.59-.47 1.5-.69 3.07-1.04 4.58 2.06 3.6 4.68 6.72 7.33 8.94-2.66 2.19-5.19 5.02-7.63 9.06.22 1.74.45 3.39.91 5.02h.06c2.8-5.78 6.06-9.6 9.3-12.13 6.55 4.55 13.21 5.86 14.14 5.98-.08-.31-.56-1.91-.66-3.3l-.07-.26ZM69.3 6.63c2.29 3.49 3.08 7.78 3.3 10.22-2.08.8-5.32 2.29-8.44 4.83-.45-2.2-1.24-5.45-2.95-9.17 2.09-2.08 4.75-4.15 8.1-5.87zM49.13 4.21c2.76 2.33 4.82 5.12 6.31 7.68-2.44 3.12-3.95 6.12-4.77 8.21-1.14-2.09-3.21-4.88-6.31-7.68 1.05-2.66 2.56-5.55 4.77-8.21zM29.38 9.8c4.03.83 7.14 2.35 9.78 4.22a36.844 36.844 0 0 0-1.43 9.96c-2.07-1.52-5.06-3.39-8.97-4.68-.33-2.78-.2-6.03.62-9.5zm-4.33 12.73c.79 4.52 2.33 7.96 3.47 10.17-2.65-.48-6.75-.8-11.25-.24-1.49-2.91-2.62-6.5-2.83-10.56 3.92-.44 7.5-.08 10.61.63zM4.78 40.98c3.36-2.42 7.05-3.68 10.4-4.36 2.4 3.84 5.39 6.63 7.46 8.38-2.65.45-6.58 1.48-10.74 4.12-2.53-1.98-5.05-4.66-7.11-8.15z" style="fill:#fff;fill-rule:evenodd;stroke:#2db24a;stroke-width:.25px" transform="matrix(.26458 0 0 .26458 -.189 -.253)"></path><path class="cls-1" d="M47.3 23.46c-.69-1.27-2.08-3.82-4.51-6.25-.81 3.47-.81 6.48-.69 7.99-.12 0 2.2-1.16 5.2-1.74zM36.54 28.32c-1.27-1.04-3.7-2.89-7.28-4.4.92 3.82 2.43 6.6 3.24 7.99 0 .23 1.62-1.74 4.05-3.59zM50.67 20.08c.81-2.08 2.31-5.09 4.74-8.22-1.5-2.66-3.58-5.32-6.36-7.64-2.2 2.78-3.7 5.56-4.74 8.33 3.12 2.66 5.09 5.44 6.36 7.52zM29.15 36.66c-1.22-.22-2.56-.41-4-.52a40.19 40.19 0 0 0-5.77-.06c1.01 1.29 2.24 2.71 3.73 4.14A39.43 39.43 0 0 0 26.35 43c.35-1.03.77-2.12 1.28-3.28a43.76 43.76 0 0 1 1.51-3.06zM11.92 49.15c4.16-2.66 8.09-3.82 10.75-4.17-2.08-1.74-5.09-4.51-7.52-8.33-3.47.69-7.01 2.02-10.36 4.33 1.97 3.47 4.47 6.2 7.12 8.17zM25.21 48.11c-1.62.12-5.56.34-10.19 3.12 4.28 2.66 8.22 4.06 10.19 4.52-.35-2.55-.35-5.21 0-7.64zM39.21 14.02c-2.54-1.74-5.78-3.24-9.83-4.17-.81 3.47-.92 6.71-.69 9.49 3.93 1.27 6.94 3.12 9.02 4.63 0-2.31.35-5.9 1.5-9.95zM74.58 5.55s3.24 9.95 3.35 15.04c-3.93.93-7.4 2.31-11.21 5.56 2.08 1.04 3.93 2.31 5.67 3.82 1.85 1.62 3.58 2.31 6.01 1.16 1.39-.93 9.13-8.91 9.94-9.95 1.85-1.97 1.39-5.21-.58-6.71-4.86-4.51-13.18-8.91-13.18-8.91ZM2.82 37.77c3.47-2.31 6.94-3.82 10.41-4.63-1.5-3.12-2.54-6.71-2.77-10.88C7.11 27 4.45 32.33 2.83 37.77zM28.59 32.72c-1.16-2.2-2.66-5.79-3.47-10.18-3.12-.69-6.59-1.04-10.64-.46.23 4.05 1.39 7.52 2.89 10.53 4.62-.69 8.56-.35 11.22.12z" style="fill:#43b02a;fill-rule:evenodd;stroke:#43b02a;stroke-width:.25px" transform="matrix(.26458 0 0 .26458 -.189 -.253)"></path><path class="cls-3" d="M14.22 17.73c1.52-.19 3.32-.3 5.35-.22 1.82.08 3.44.3 4.83.56.29-3.12.58-6.24.88-9.37a45.326 45.326 0 0 0-5.82 4.02 45.63 45.63 0 0 0-5.23 5z" style="fill:#43b02a;fill-rule:evenodd;stroke:#43b02a;stroke-width:.25px;stroke-linecap:round" transform="matrix(.26458 0 0 .26458 -.189 -.253)"></path><path class="cls-5" d="M31.2 5.66c2.19.64 4.61 1.55 7.12 2.84.75.38 1.46.78 2.13 1.17a33.466 33.466 0 0 1 4.63-8.01c-2.15.36-4.53.88-7.08 1.62-2.53.73-4.8 1.55-6.8 2.38Z" style="fill:#43b02a;stroke:#43b02a;stroke-width:.25px" transform="matrix(.26458 0 0 .26458 -.189 -.253)"></path><path class="cls-1" d="M9.14 51.23c-2.66-2.2-5.32-5.09-7.4-8.68C.58 48.45.58 54.7 1.51 60.49c2.2-4.05 4.86-6.94 7.63-9.26ZM86.84 81.09c-7.28-6.94-8.79-11.46-14.91-6.71C55.17 87.57 31 79.7 25.91 59.22c-.92-.12-7.4-1.39-13.99-5.9-3.24 2.55-6.59 6.48-9.37 12.15h-.12c10.52 39.81 61.74 49.07 85.44 24.19 3.93-4.17.35-7.06-1.04-8.56zM69.26 6.58c-3.35 1.62-6.01 3.7-8.09 5.9 1.73 3.7 2.54 7.06 3.01 9.14 3.24-2.55 6.47-4.05 8.44-4.86-.23-2.31-1.04-6.6-3.35-10.18zM57.59 16.75a26.405 26.405 0 0 0-3.02 6.27c.8.04 1.66.12 2.56.23.82.1 1.6.23 2.32.38-.13-.88-.3-1.84-.55-2.86-.38-1.52-.84-2.87-1.32-4.02zM58.67 8.08c1.04-.98 2.3-2.05 3.78-3.1 1.32-.94 2.58-1.7 3.74-2.31-1.92-.46-4.1-.88-6.51-1.17-2.52-.3-4.83-.4-6.88-.38 2.42 2.21 4.38 4.64 5.87 6.96z" style="fill:#43b02a;fill-rule:evenodd;stroke:#43b02a;stroke-width:.25px" transform="matrix(.26458 0 0 .26458 -.189 -.253)"></path><g class="cls-8" mask="url(#a)" transform="matrix(.26458 0 0 .26458 -.189 -.253)"><g class="cls-9" mask="url(#b)"><path class="cls-7" style="fill:#fff;stroke:#2db24a;stroke-width:.25px" d="M2.32 55.67h88.34v49.66H2.32z"></path></g><path class="cls-6" d="M.12.12v103.94h90.54V.12Z" style="fill:none;stroke:#2db24a;stroke-width:.25px"></path></g><path class="cls-6" d="M21.03 65.02c3.7 9.82 16.63 22.86 32.56 22.86 8.78 0 16.74-3.12 22.98-8.43.46-.23 4.73 4.62 6.47 6.47.35.46.35.58.35.58-21.02 18.36-56.7 15.71-73.56-16.05 1.39-4.62 3.35-7.39 3.35-7.39 4.5 1.85 7.85 1.96 7.85 1.96z" style="fill:#fff;fill-opacity:1;stroke:#2db24a;stroke-width:.25px" transform="matrix(.26458 0 0 .26458 -.189 -.253)"></path></svg>
